<svg xmlns="http://www.w3.org/2000/svg" xmlns:xlink="http://www.w3.org/1999/xlink" version="1.1" x="0px" y="0px" viewBox="0 0 100 125" style="enable-background:new 0 0 100 100;" xml:space="preserve"><style type="text/css">
	.st0{fill:none;stroke:#000000;stroke-width:2;stroke-linecap:round;stroke-linejoin:round;stroke-miterlimit:10;}
</style><path d="M25,54v34.6c0,2.3,1.8,4.1,4.1,4.1h40.8c2.3,0,4.1-1.8,4.1-4.1V50c7.4-1.2,12.8-7.6,12.8-15.2c0-6.8-4.8-12.9-11.5-14.7  c-2.3-0.6-4.6-0.7-7-0.2c-2.8-6.9-9.5-11.4-16.9-11.4c-7,0-13.4,4-16.4,10.3c-2.3-0.6-4.7-0.7-7.1-0.4c-8.1,1.1-14.6,7.9-15.6,16  C11.4,43.3,16.7,51.3,25,54z M14.3,34.7c0.8-7.2,6.6-13.2,13.8-14.2c0.8-0.1,1.6-0.2,2.3-0.2c1.6,0,4.8,0.7,4.8,0.7  c0,0,5.3,1.1,8.3,6.1c0.2,0.3,0.5,0.5,0.9,0.5c0.2,0,0.3,0,0.5-0.1c0.5-0.3,0.6-0.9,0.4-1.4C42.8,21.8,39,20,37,19.4  c2.8-5.4,8.3-8.8,14.5-8.8c6.9,0,13.1,4.4,15.4,10.9c0.2,0.5,0.7,0.8,1.2,0.6c2.3-0.6,4.6-0.7,6.8-0.1c5.9,1.6,10,6.8,10,12.8  c0,6.9-5.1,12.6-11.9,13.3c-0.5,0.1-0.9,0.5-0.9,1v39.5c0,1.2-0.9,2.1-2.1,2.1H29.1c-1.2,0-2.1-0.9-2.1-2.1V53.2  c0-0.5-0.3-0.8-0.7-1C18.5,50.1,13.4,42.8,14.3,34.7z"/><path d="M33.8,86.9c0.6,0,1-0.4,1-1V71.3c0-0.6-0.4-1-1-1s-1,0.4-1,1v14.6C32.8,86.5,33.3,86.9,33.8,86.9z"/><path d="M40.1,86.9c0.6,0,1-0.4,1-1V71.3c0-0.6-0.4-1-1-1s-1,0.4-1,1v14.6C39.1,86.5,39.6,86.9,40.1,86.9z"/><path d="M46.5,86.9c0.6,0,1-0.4,1-1V71.3c0-0.6-0.4-1-1-1s-1,0.4-1,1v14.6C45.5,86.5,45.9,86.9,46.5,86.9z"/><path d="M52.8,86.9c0.6,0,1-0.4,1-1V71.3c0-0.6-0.4-1-1-1s-1,0.4-1,1v14.6C51.8,86.5,52.2,86.9,52.8,86.9z"/><path d="M59.1,86.9c0.6,0,1-0.4,1-1V71.3c0-0.6-0.4-1-1-1s-1,0.4-1,1v14.6C58.1,86.5,58.5,86.9,59.1,86.9z"/><path d="M65.4,86.9c0.6,0,1-0.4,1-1V71.3c0-0.6-0.4-1-1-1s-1,0.4-1,1v14.6C64.4,86.5,64.8,86.9,65.4,86.9z"/><text x="0" y="115" fill="#000000" font-size="5px" font-weight="bold" font-family="'Helvetica Neue', Helvetica, Arial-Unicode, Arial, Sans-serif">Created by Made by Made</text><text x="0" y="120" fill="#000000" font-size="5px" font-weight="bold" font-family="'Helvetica Neue', Helvetica, Arial-Unicode, Arial, Sans-serif">from the Noun Project</text></svg>